<svg xmlns="http://www.w3.org/2000/svg" width="32.979" height="43.298" viewBox="0 0 32.979 43.298">
    <defs>
        <style>
            .cls-1{fill:#164c81}
        </style>
    </defs>
    <g id="brochure" transform="translate(-61.011)">
        <path id="Path_1164" d="M147.645 102.02h-25.369a1.268 1.268 0 0 0-1.268 1.268v32.134a1.268 1.268 0 0 0 1.268 1.268h25.369a1.268 1.268 0 0 0 1.268-1.268v-32.134a1.268 1.268 0 0 0-1.268-1.268zm-16.067 8.456h.32l-.226-.226a1.268 1.268 0 0 1 1.794-1.794l.226.226v-.32a1.268 1.268 0 1 1 2.537 0v.32l.226-.226a1.268 1.268 0 0 1 1.794 1.794l-.226.226h.32a1.268 1.268 0 1 1 0 2.537h-.32l.226.226a1.268 1.268 0 1 1-1.794 1.794l-.226-.226v.32a1.268 1.268 0 0 1-2.537 0v-.32l-.226.226a1.268 1.268 0 0 1-1.794-1.794l.226-.226h-.32a1.268 1.268 0 0 1 0-2.537zm10.993 21.141H127.35a1.268 1.268 0 0 1 0-2.537h15.221a1.268 1.268 0 1 1 0 2.537zm0-5.074H127.35a1.268 1.268 0 0 1 0-2.537h15.221a1.268 1.268 0 1 1 0 2.537zm0-5.074H127.35a1.268 1.268 0 0 1 0-2.537h15.221a1.268 1.268 0 1 1 0 2.537z" class="cls-1" data-name="Path 1164" transform="translate(-54.923 -93.393)"/>
        <path id="Path_1165" d="M87.273 0H62.279a1.268 1.268 0 0 0-1.268 1.268V35.1a1.268 1.268 0 0 0 1.268 1.268h1.268V9.9a3.811 3.811 0 0 1 2.942-3.71c.033-.014 13.562-4.041 20.784-6.19z" class="cls-1" data-name="Path 1165"/>
        <path id="Path_1166" d="M248.648 26.712l.017-4.145.023-.04-14.073 4.185z" class="cls-1" data-name="Path 1166" transform="translate(-158.924 -20.622)"/>
    </g>
</svg>
