<svg xmlns="http://www.w3.org/2000/svg" width="35.878" height="35.878" viewBox="0 0 35.878 35.878">
    <g id="prefix__close" transform="translate(-6.224 -6)">
        <circle id="prefix__Ellipse_50" cx="17.939" cy="17.939" r="17.939" data-name="Ellipse 50" transform="translate(6.224 6)" style="fill:#fff"/>
        <path id="prefix__Path_1172" d="M132.193 132.193a1.55 1.55 0 0 1-2.172 0l-5.035-5.035-5.035 5.035a1.536 1.536 0 1 1-2.172-2.172l5.035-5.035-5.035-5.035a1.536 1.536 0 1 1 2.172-2.172l5.035 5.035 5.035-5.035a1.536 1.536 0 0 1 2.172 2.172l-5.035 5.035 5.035 5.035a1.55 1.55 0 0 1 0 2.172z" data-name="Path 1172" transform="translate(-100.823 -100.649)" style="fill:#4b84bc"/>
    </g>
</svg>
