<svg xmlns="http://www.w3.org/2000/svg" width="26.548" height="14" viewBox="0 0 26.548 14">
    <defs>
        <style>
            .prefix__cls-2{fill:#707070}
        </style>
    </defs>
    <g id="prefix__eye" transform="translate(0 -121)" style="opacity:.644">
        <g id="prefix__Group_2627" data-name="Group 2627" transform="translate(-.001 121)">
            <g id="prefix__Group_2626" data-name="Group 2626">
                <path id="prefix__Path_1182" d="M26.349 127.481c-.237-.264-5.937-6.481-13.076-6.481S.435 127.217.2 127.481a.778.778 0 0 0 0 1.038c.235.264 5.935 6.481 13.074 6.481s12.839-6.217 13.076-6.481a.778.778 0 0 0-.001-1.038zm-13.076 5.963A5.444 5.444 0 1 1 18.718 128a5.451 5.451 0 0 1-5.444 5.444z" class="prefix__cls-2" data-name="Path 1182" transform="translate(.001 -121)"/>
            </g>
        </g>
        <g id="prefix__Group_2629" data-name="Group 2629" transform="translate(9.385 124.111)">
            <g id="prefix__Group_2628" data-name="Group 2628">
                <path id="prefix__Path_1183" d="M185.667 183.333a2.326 2.326 0 0 1 .979-1.894 3.839 3.839 0 0 0-1.757-.439 3.889 3.889 0 1 0 3.823 4.544 2.32 2.32 0 0 1-3.045-2.211z" class="prefix__cls-2" data-name="Path 1183" transform="translate(-181 -181)"/>
            </g>
        </g>
    </g>
</svg>
