<svg xmlns="http://www.w3.org/2000/svg" width="19.32" height="35.735" viewBox="0 0 19.32 35.735">
    <g id="prefix__facebook" transform="translate(-22.077)">
        <path id="prefix__Path_1184" d="M40.67.007L36.036 0c-5.206 0-8.571 3.452-8.571 8.794v4.055h-4.659a.729.729 0 0 0-.729.729v5.875a.729.729 0 0 0 .729.729h4.659v14.825a.728.728 0 0 0 .729.729h6.079a.729.729 0 0 0 .727-.729V20.182h5.448a.728.728 0 0 0 .729-.729v-5.875a.729.729 0 0 0-.729-.729H35V9.412c0-1.652.394-2.491 2.546-2.491h3.122a.729.729 0 0 0 .728-.729V.736a.729.729 0 0 0-.726-.729z" data-name="Path 1184" style="fill:#fff"/>
    </g>
</svg>
