<svg xmlns="http://www.w3.org/2000/svg" id="Group_2610" width="38.669" height="22.651" data-name="Group 2610" viewBox="0 0 38.669 22.651">
    <defs>
        <style>
            .cls-1{fill:#fff}
        </style>
    </defs>
    <path id="Path_3" d="M0 18.1l.644-3.867A19.408 19.408 0 0 1 30.505 3.488a3.772 3.772 0 0 1 1.074.859A30.083 30.083 0 0 1 28.142 6.5c-.215.215-.859 0-1.289-.215a15 15 0 0 0-21.7 8.163 13.489 13.489 0 0 0-.644 4.082c-.209 1.929-.642 2.57-1.931 2.788C1.5 21.748.859 21.1 0 19.6z" class="cls-1" data-name="Path 3" transform="translate(0 .044)"/>
    <path id="Path_4" d="M10.069 21.409c-.215-.215-.644-.215-.859-.43-2.363-1.289-2.793-4.082-.859-5.8a11.916 11.916 0 0 1 1.719-1.289C16.514 9.808 22.959 5.726 29.4 1.43c.215 0 .43-.215.859-.43a2.966 2.966 0 0 1-.644.859c-5.156 5.8-10.1 11.386-15.253 17.186a36.726 36.726 0 0 1-3.008 2.363z" class="cls-1" data-name="Path 4" transform="translate(8.191 1.243)"/>
    <path id="Path_5" d="M17.778 3.9a18.881 18.881 0 0 1 3.437 10.956 1.925 1.925 0 0 1-1.933 1.933 1.952 1.952 0 0 1-2.148-1.719A18.691 18.691 0 0 0 15.2 7.337c0-.215 0-.644.215-.644.644-.86 1.504-1.719 2.363-2.793z" class="cls-1" data-name="Path 5" transform="translate(17.454 4.573)"/>
    <path id="Path_6" d="M10.033 6.867A1.925 1.925 0 0 1 8.1 4.933 1.894 1.894 0 0 1 9.819 3a1.925 1.925 0 0 1 1.933 1.933 1.644 1.644 0 0 1-1.719 1.934z" class="cls-1" data-name="Path 6" transform="translate(9.301 3.539)"/>
    <path id="Path_7" d="M8.267 6.433A1.933 1.933 0 1 1 6.333 4.5a1.925 1.925 0 0 1 1.934 1.933z" class="cls-1" data-name="Path 7" transform="translate(5.052 5.262)"/>
    <path id="Path_8" d="M4.833 11.967a1.933 1.933 0 1 1 1.933-1.933 1.925 1.925 0 0 1-1.933 1.933z" class="cls-1" data-name="Path 8" transform="translate(3.33 9.396)"/>
    <path id="Path_9" d="M17.067 9.919a1.925 1.925 0 0 1-1.933 1.933 1.894 1.894 0 0 1-1.934-1.719A1.925 1.925 0 0 1 15.133 8.2a1.894 1.894 0 0 1 1.934 1.719z" class="cls-1" data-name="Path 9" transform="translate(15.157 9.51)"/>
</svg>
