<svg xmlns="http://www.w3.org/2000/svg" id="prefix__Group_2619" width="21.796" height="17.808" data-name="Group 2619" viewBox="0 0 21.796 17.808">
    <defs>
        <style>
            .prefix__cls-1{fill:#666}
        </style>
    </defs>
    <path id="prefix__Path_904" d="M8.893 16.464a.3.3 0 0 1-.021-.192c0-.043-.021-.085-.107-.128s-.107-.064-.107-.085-.043-.043-.171-.043A.59.59 0 0 1 8.318 16H4.009a2.127 2.127 0 0 1-1.578-.661 2.175 2.175 0 0 1-.661-1.578V4.009a2.127 2.127 0 0 1 .661-1.578 2.175 2.175 0 0 1 1.578-.661h4.458a.362.362 0 0 0 .277-.085.482.482 0 0 0 .128-.277 2.218 2.218 0 0 0 .043-.32V.725c0-.149-.021-.235-.021-.277A.437.437 0 0 0 8.445 0H4.009a3.848 3.848 0 0 0-2.836 1.173A3.848 3.848 0 0 0 0 4.009V13.8a3.848 3.848 0 0 0 1.173 2.836 3.848 3.848 0 0 0 2.836 1.173h4.458a.362.362 0 0 0 .277-.085.674.674 0 0 0 .149-.277 2.218 2.218 0 0 0 .043-.32v-.363a1.231 1.231 0 0 1-.043-.3zm0 0" class="prefix__cls-1" data-name="Path 904"/>
    <path id="prefix__Path_905" d="M41.287 9.927l-7.571-7.571a.874.874 0 0 0-1.493.618v4.01h-6.249a.874.874 0 0 0-.874.874v5.332a.874.874 0 0 0 .874.874H32.2v4.009a.875.875 0 0 0 1.493.618l7.592-7.528a.875.875 0 0 0 0-1.237zm0 0" class="prefix__cls-1" data-name="Path 905" transform="translate(-19.747 -1.652)"/>
</svg>
