<svg xmlns="http://www.w3.org/2000/svg" width="47.8" height="37.235" viewBox="0 0 47.8 37.235">
    <defs>
        <style>
            .cls-1{fill:#fff}
        </style>
    </defs>
    <g id="id-card_1_" data-name="id-card (1)" transform="translate(0 -53.95)">
        <g id="Group_2599" data-name="Group 2599" transform="translate(0 53.95)">
            <path id="Path_1157" d="M170.868 61.558h10.8a1.968 1.968 0 0 0 1.968-1.968v-1.332a1.968 1.968 0 0 0-1.968-1.968h-.607v-.832a1.508 1.508 0 0 0-1.508-1.508h-6.57a1.508 1.508 0 0 0-1.508 1.508v.832h-.607a1.968 1.968 0 0 0-1.968 1.968v1.332a1.962 1.962 0 0 0 1.968 1.968z" class="cls-1" data-name="Path 1157" transform="translate(-152.363 -53.95)"/>
            <path id="Path_1158" d="M42.307 106.55h-9.223v.49a3.8 3.8 0 0 1-3.789 3.789h-10.79a3.8 3.8 0 0 1-3.789-3.789v-.49H5.493A5.491 5.491 0 0 0 0 112.043v21.1a5.491 5.491 0 0 0 5.493 5.493h36.814a5.491 5.491 0 0 0 5.493-5.493v-21.1a5.5 5.5 0 0 0-5.493-5.493zM13.756 132.1a9.507 9.507 0 1 1 9.507-9.507 9.51 9.51 0 0 1-9.507 9.507zm28.678-4.171H26.387v-2.046h16.038v2.046zm0-4.318H26.387v-2.046h16.038v2.046zm0-4.318H26.387v-2.046h16.038v2.053z" class="cls-1" data-name="Path 1158" transform="translate(0 -101.4)"/>
            <path id="Path_1159" d="M70.076 192.05a7.674 7.674 0 0 0-5.982 12.484 1.587 1.587 0 0 1 1.116-1.518 9.319 9.319 0 0 0 2.732-1.243l1.136 3.584.157.49.509-1.439c-1.273-1.772.333-1.7.333-1.7s1.606-.069.333 1.7l.5 1.43.157-.48v.01l.176-.568.95-3.016a9.32 9.32 0 0 0 2.732 1.243 1.587 1.587 0 0 1 1.116 1.518 7.682 7.682 0 0 0-5.963-12.493zm3.035 6.775c-.2.7-.392.911-.529.92a3.057 3.057 0 0 1-1.851 2.291 2.029 2.029 0 0 1-1.361 0 3.016 3.016 0 0 1-1.851-2.291c-.137-.01-.333-.206-.529-.92-.274-.969.02-1.116.264-1.087a3.049 3.049 0 0 1-.108-.4 2.986 2.986 0 0 1-.01-1.283 2.887 2.887 0 0 1 .744-1.312 3.773 3.773 0 0 1 .685-.568 2.858 2.858 0 0 1 .666-.343 2.087 2.087 0 0 1 .607-.117 2.485 2.485 0 0 1 1.527.323 1.869 1.869 0 0 1 .744.7s1.234.088.822 2.6a2.231 2.231 0 0 1-.108.4c.269-.019.563.118.288 1.087z" class="cls-1" data-name="Path 1159" transform="translate(-56.29 -178.529)"/>
        </g>
    </g>
</svg>
