<svg xmlns="http://www.w3.org/2000/svg" id="prefix__linkedin" width="31.361" height="31.361" viewBox="0 0 31.361 31.361">
    <defs>
        <style>
            .prefix__cls-1{fill:#fff}
        </style>
    </defs>
    <path id="prefix__Path_1186" d="M28.75 29.038h.008v-11.5c0-5.627-1.211-9.961-7.789-9.961a6.829 6.829 0 0 0-6.151 3.38h-.091V8.1H8.489v20.937h6.494V18.669c0-2.73.517-5.369 3.9-5.369 3.331 0 3.38 3.115 3.38 5.544v10.194z" class="prefix__cls-1" data-name="Path 1186" transform="translate(2.604 2.323)"/>
    <path id="prefix__Path_1187" d="M.4 7.977h6.5v20.938H.4z" class="prefix__cls-1" data-name="Path 1187" transform="translate(.121 2.447)"/>
    <path id="prefix__Path_1188" d="M3.766 0a3.784 3.784 0 1 0 3.766 3.766A3.767 3.767 0 0 0 3.766 0z" class="prefix__cls-1" data-name="Path 1188"/>
</svg>
