<svg xmlns="http://www.w3.org/2000/svg" id="prefix__Group_2631" width="30.375" height="23.853" data-name="Group 2631" viewBox="0 0 30.375 23.853">
    <defs>
        <style>
            .prefix__cls-1{fill:#fff}
        </style>
    </defs>
    <path id="prefix__Path_978" d="M2.91 7.353c.39.26 1.533 1.065 3.482 2.417 1.923 1.351 3.4 2.365 4.443 3.092.1.078.364.26.728.52s.676.468.909.65c.234.156.546.338.883.546a5.378 5.378 0 0 0 .961.468 2.731 2.731 0 0 0 .857.156h.027a2.731 2.731 0 0 0 .857-.156 4.646 4.646 0 0 0 .961-.468c.338-.208.65-.39.883-.546s.546-.39.909-.65.6-.442.728-.52c1.039-.728 3.69-2.546 7.925-5.509a7.806 7.806 0 0 0 2.053-2.079 4.5 4.5 0 0 0 .831-2.546 2.592 2.592 0 0 0-.803-1.923A2.679 2.679 0 0 0 27.647 0H2.7a2.393 2.393 0 0 0-2 .883A3.407 3.407 0 0 0 0 3.092 3.975 3.975 0 0 0 .935 5.4 8.215 8.215 0 0 0 2.91 7.353zm0 0" class="prefix__cls-1" data-name="Path 978"/>
    <path id="prefix__Path_979" d="M28.66 31.007c-3.716 2.494-6.522 4.443-8.445 5.82-.65.468-1.169.857-1.559 1.117a8.388 8.388 0 0 1-1.611.806 4.8 4.8 0 0 1-1.871.416h-.026a4.8 4.8 0 0 1-1.871-.416 8.887 8.887 0 0 1-1.585-.806c-.39-.26-.935-.624-1.559-1.117q-2.3-1.676-8.419-5.846A8.584 8.584 0 0 1 0 29.5v13.46a2.592 2.592 0 0 0 .806 1.923 2.65 2.65 0 0 0 1.923.806h24.918a2.592 2.592 0 0 0 1.923-.806 2.65 2.65 0 0 0 .806-1.923V29.526a10.493 10.493 0 0 1-1.715 1.481zm0 0" class="prefix__cls-1" data-name="Path 979" transform="translate(0 -21.835)"/>
</svg>
