<svg xmlns="http://www.w3.org/2000/svg" id="Group_2554" width="13.133" height="10.313" data-name="Group 2554" viewBox="0 0 13.133 10.313">
    <defs>
        <style>
            .cls-1{fill:#327fc9}
        </style>
    </defs>
    <path id="Path_978" d="M1.258 3.179c.169.112.663.461 1.505 1.045s1.472 1.022 1.922 1.337c.045.034.157.112.315.225s.292.2.393.281.236.146.382.236a2.325 2.325 0 0 0 .416.2 1.181 1.181 0 0 0 .371.067h.011a1.181 1.181 0 0 0 .37-.07 2.009 2.009 0 0 0 .416-.2c.146-.09.281-.169.382-.236s.236-.169.393-.281.258-.191.315-.225c.449-.315 1.6-1.1 3.426-2.382a3.375 3.375 0 0 0 .887-.9 1.947 1.947 0 0 0 .359-1.1 1.12 1.12 0 0 0-.348-.831 1.158 1.158 0 0 0-.82-.345H1.168A1.035 1.035 0 0 0 .3.382a1.473 1.473 0 0 0-.3.955 1.719 1.719 0 0 0 .4 1 3.552 3.552 0 0 0 .854.843zm0 0" class="cls-1" data-name="Path 978"/>
    <path id="Path_979" d="M12.391 30.152a152.13 152.13 0 0 0-3.651 2.516c-.281.2-.506.371-.674.483a3.627 3.627 0 0 1-.7.348 2.076 2.076 0 0 1-.809.18h-.008a2.076 2.076 0 0 1-.809-.18 3.843 3.843 0 0 1-.685-.348c-.169-.112-.4-.27-.674-.483q-.994-.725-3.64-2.528A3.711 3.711 0 0 1 0 29.5v5.819a1.12 1.12 0 0 0 .348.831 1.146 1.146 0 0 0 .831.348h10.774a1.12 1.12 0 0 0 .831-.348 1.146 1.146 0 0 0 .348-.831v-5.808a4.536 4.536 0 0 1-.741.64zm0 0" class="cls-1" data-name="Path 979" transform="translate(0 -26.186)"/>
</svg>
