<svg xmlns="http://www.w3.org/2000/svg" id="prefix__Group_2622" width="10.934" height="8.586" data-name="Group 2622" viewBox="0 0 10.934 8.586">
    <defs>
        <style>
            .prefix__cls-1{fill:#fff}
        </style>
    </defs>
    <path id="prefix__Path_978" d="M1.048 2.647c.14.094.552.383 1.253.87l1.6 1.113c.037.028.131.094.262.187s.243.168.327.234.2.122.318.2a1.936 1.936 0 0 0 .346.168.983.983 0 0 0 .309.056h.009a.983.983 0 0 0 .309-.056 1.672 1.672 0 0 0 .346-.168c.122-.075.234-.14.318-.2s.2-.14.327-.234.215-.159.262-.187c.374-.262 1.328-.917 2.853-1.983a2.81 2.81 0 0 0 .739-.748 1.621 1.621 0 0 0 .3-.917.933.933 0 0 0-.29-.692.964.964 0 0 0-.684-.29H.973a.862.862 0 0 0-.72.318 1.227 1.227 0 0 0-.253.8 1.431 1.431 0 0 0 .337.832 2.957 2.957 0 0 0 .711.7zm0 0" class="prefix__cls-1" data-name="Path 978"/>
    <path id="prefix__Path_979" d="M10.317 30.042c-1.338.9-2.348 1.6-3.04 2.1-.234.168-.421.309-.561.4a3.02 3.02 0 0 1-.58.29 1.729 1.729 0 0 1-.673.15h-.01a1.729 1.729 0 0 1-.673-.15 3.2 3.2 0 0 1-.571-.29c-.14-.094-.337-.224-.561-.4q-.828-.6-3.031-2.1A3.09 3.09 0 0 1 0 29.5v4.845a.933.933 0 0 0 .29.692.954.954 0 0 0 .692.29h8.97a.933.933 0 0 0 .692-.29.954.954 0 0 0 .29-.692v-4.836a3.777 3.777 0 0 1-.617.533zm0 0" class="prefix__cls-1" data-name="Path 979" transform="translate(0 -26.741)"/>
</svg>
