<svg xmlns="http://www.w3.org/2000/svg" width="27.431" height="25.267" viewBox="0 0 27.431 25.267">
    <defs>
        <style>
            .prefix__cls-1{fill:#666}
        </style>
    </defs>
    <g id="prefix__renew" transform="translate(0 -.004)">
        <path id="prefix__Path_1191" d="M25.777 247.221a.8.8 0 0 0-.893.7 11.045 11.045 0 0 1-21.6 1.627l.96.527a.8.8 0 1 0 .774-1.409l-2.466-1.355a.8.8 0 0 0-1.091.317L.1 250.094a.8.8 0 0 0 .316 1.092.833.833 0 0 0 1.092-.316l.316-.573a12.653 12.653 0 0 0 24.656-2.183.8.8 0 0 0-.703-.893zm0 0" class="prefix__cls-1" data-name="Path 1191" transform="translate(0 -233.967)"/>
        <path id="prefix__Path_1192" d="M53.92 6.866a.8.8 0 0 0-1.056.42l-.253.585a12.758 12.758 0 0 0-4.074-5.3A12.545 12.545 0 0 0 40.9 0a12.649 12.649 0 0 0-12.381 10.02.8.8 0 1 0 1.573.332 11.047 11.047 0 0 1 21.147-1.578l-1.018-.438a.8.8 0 1 0-.635 1.476l2.585 1.112a.8.8 0 0 0 1.056-.42l1.113-2.581a.8.8 0 0 0-.42-1.057zm0 0" class="prefix__cls-1" data-name="Path 1192" transform="translate(-26.975)"/>
        <path id="prefix__Path_1193" d="M131.734 122.18l-2.376 3.87a.268.268 0 0 1-.24.149.265.265 0 0 1-.119-.028.967.967 0 0 0-1.3.438l-.143.288a.968.968 0 0 0 .438 1.3l8.818 4.369a.967.967 0 0 0 1.3-.438l.143-.288a.968.968 0 0 0-.438-1.3.268.268 0 0 1-.121-.359l1.64-4.235a4.259 4.259 0 0 0-7.6-3.767zm0 0" class="prefix__cls-1" data-name="Path 1193" transform="translate(-120.63 -113.708)"/>
        <path id="prefix__Path_1194" d="M225.4 348.9a1.274 1.274 0 0 0 1.521-.365l-2.151-1.066a1.221 1.221 0 0 0 .63 1.431zm0 0" class="prefix__cls-1" data-name="Path 1194" transform="translate(-212.68 -328.846)"/>
        <path id="prefix__Path_1195" d="M305.723 83.126l.025-.047a1.141 1.141 0 0 0-.515-1.528 1.112 1.112 0 0 0-1.528.515c-.008.016-.014.033-.021.049a5.832 5.832 0 0 1 2.04 1.01zm0 0" class="prefix__cls-1" data-name="Path 1195" transform="translate(-287.413 -77.076)"/>
    </g>
</svg>
