<svg xmlns="http://www.w3.org/2000/svg" width="23.054" height="30.738" viewBox="0 0 23.054 30.738">
    <defs>
        <style>
            .cls-1{fill:#164c81}
        </style>
    </defs>
    <g id="shopping-list" transform="translate(-64)">
        <g id="Group_2616" data-name="Group 2616" transform="translate(69.763)">
            <g id="Group_2615" data-name="Group 2615">
                <path id="Path_1169" d="M170.566 1.921h-2.086a2.883 2.883 0 0 0-5.435 0h-2.084a.961.961 0 0 0-.961.961v3.842a.961.961 0 0 0 .961.961h9.606a.961.961 0 0 0 .961-.961V2.882a.961.961 0 0 0-.962-.961z" class="cls-1" data-name="Path 1169" transform="translate(-160)"/>
            </g>
        </g>
        <g id="Group_2618" data-name="Group 2618" transform="translate(64 3.842)">
            <g id="Group_2617" data-name="Group 2617">
                <path id="Path_1170" d="M85.133 64h-1.921v2.882a2.885 2.885 0 0 1-2.882 2.882h-9.606a2.885 2.885 0 0 1-2.882-2.882V64h-1.921A1.924 1.924 0 0 0 64 65.921v23.054a1.9 1.9 0 0 0 1.921 1.925h19.212a1.9 1.9 0 0 0 1.921-1.921V65.921A1.9 1.9 0 0 0 85.133 64zm-9.887 17.01L71.4 84.852a.965.965 0 0 1-1.36 0l-1.921-1.921a.96.96 0 1 1 1.358-1.358l1.243 1.241 3.162-3.162a.961.961 0 0 1 1.36 1.358zm0-7.685L71.4 77.168a.965.965 0 0 1-1.36 0l-1.921-1.921a.96.96 0 1 1 1.358-1.358l1.243 1.241 3.162-3.162a.961.961 0 0 1 1.36 1.358zm7 9.886h-3.837a.961.961 0 1 1 0-1.921h3.842a.961.961 0 1 1 0 1.921zm0-7.685h-3.837a.961.961 0 1 1 0-1.921h3.842a.961.961 0 1 1 0 1.921z" class="cls-1" data-name="Path 1170" transform="translate(-64 -64)"/>
            </g>
        </g>
    </g>
</svg>
