<svg xmlns="http://www.w3.org/2000/svg" width="28.747" height="40.1" viewBox="0 0 28.747 40.1">
    <defs>
        <style>
            .prefix__cls-1{fill:#fff}
        </style>
    </defs>
    <g id="prefix__tap" transform="rotate(180 14.286 20.028)">
        <path id="prefix__Path_1179" d="M26.206 63.061h-.058a2.1 2.1 0 0 0-2.041 2.153v1.678a.606.606 0 0 1-1.211 0v-3.1a2 2 0 1 0-3.98 0v3.285a.606.606 0 0 1-1.211 0v-4.185a2.1 2.1 0 0 0-2.022-2.167h-.063a2.027 2.027 0 0 0-1.983 2.075v4.714a.606.606 0 1 1-1.211 0v-4.577-.046V52.08a2.121 2.121 0 0 0-2.021-2.2 2.121 2.121 0 0 0-2.022 2.194l-.013 17.75a.606.606 0 0 1-1.074.384l-2.119-2.579a3.226 3.226 0 0 0-2.277-1.2 3.157 3.157 0 0 0-2.372.851L.5 67.3l-.415.347 7.352 14.116a6.517 6.517 0 0 0 5.723 3.624h8.493a6.849 6.849 0 0 0 6.561-7.075c0-2.063 0-3.61.006-4.856 0-3.331.006-4.557 0-8.227a2.092 2.092 0 0 0-2.014-2.168zm0 0" class="prefix__cls-1" data-name="Path 1179" transform="translate(0 -45.566)"/>
        <path id="prefix__Path_1180" d="M49.2 6.724a.606.606 0 0 0 .606-.606 4.884 4.884 0 1 1 9.767 0 .606.606 0 1 0 1.211 0 6.1 6.1 0 1 0-12.19 0 .606.606 0 0 0 .606.606zm0 0" class="prefix__cls-1" data-name="Path 1180" transform="translate(-44.306)"/>
    </g>
</svg>
