<svg xmlns="http://www.w3.org/2000/svg" width="34.115" height="27.726" viewBox="0 0 34.115 27.726">
    <path id="prefix__twitter" d="M10.811 23.9c12.874 0 19.915-10.666 19.915-19.915q0-.454-.02-.9A14.244 14.244 0 0 0 34.2-.542 13.964 13.964 0 0 1 30.178.56a7.026 7.026 0 0 0 3.078-3.872 14.038 14.038 0 0 1-4.444 1.7A7.005 7.005 0 0 0 16.884 4.77 19.873 19.873 0 0 1 2.456-2.543 6.983 6.983 0 0 0 1.508.975 6.994 6.994 0 0 0 4.623 6.8a6.945 6.945 0 0 1-3.17-.875v.089a7 7 0 0 0 5.616 6.861 7.025 7.025 0 0 1-1.846.246A6.956 6.956 0 0 1 3.906 13a7.007 7.007 0 0 0 6.539 4.861 14.042 14.042 0 0 1-8.693 3 14.245 14.245 0 0 1-1.67-.1A19.813 19.813 0 0 0 10.811 23.9" transform="translate(-.082 3.824)" style="fill:#fff"/>
</svg>
