<svg xmlns="http://www.w3.org/2000/svg" width="13.125" height="14" viewBox="0 0 13.125 14">
    <defs>
        <style>
            .cls-1{opacity:.591}
        </style>
    </defs>
    <g id="upload" class="cls-1" transform="translate(-16)">
        <g id="Group_2612" data-name="Group 2612" transform="translate(19.062)">
            <g id="Group_2611" data-name="Group 2611">
                <path id="Path_1167" d="M134.89 3.65l-3.063-3.5a.437.437 0 0 0-.658 0l-3.062 3.5a.437.437 0 0 0 .329.725h1.75v5.688a.438.438 0 0 0 .438.438h1.75a.438.438 0 0 0 .437-.438V4.375h1.75a.437.437 0 0 0 .329-.725z" data-name="Path 1167" transform="translate(-127.998)"/>
            </g>
        </g>
        <g id="Group_2614" data-name="Group 2614" transform="translate(16 9.625)">
            <g id="Group_2613" data-name="Group 2613">
                <path id="Path_1168" d="M27.375 352v2.625H17.75V352H16v3.5a.875.875 0 0 0 .875.875H28.25a.874.874 0 0 0 .875-.875V352z" data-name="Path 1168" transform="translate(-16 -352)"/>
            </g>
        </g>
    </g>
</svg>
