<svg xmlns="http://www.w3.org/2000/svg" id="prefix__whatsapp" width="37.294" height="37.294" viewBox="0 0 37.294 37.294">
    <g id="prefix__Group_2630" data-name="Group 2630">
        <path id="prefix__Path_1189" d="M18.652 0h-.009A18.635 18.635 0 0 0 3.55 29.577L1.226 36.5l7.167-2.291A18.644 18.644 0 1 0 18.652 0zM29.5 26.332c-.45 1.27-2.235 2.324-3.659 2.632-.974.207-2.247.373-6.531-1.4-5.48-2.27-9.009-7.839-9.284-8.2s-2.214-2.949-2.214-5.624A5.953 5.953 0 0 1 9.72 9.2a2.709 2.709 0 0 1 1.907-.669c.231 0 .438.012.625.021.548.023.823.056 1.184.921.45 1.084 1.545 3.76 1.676 4.035a1.11 1.11 0 0 1 .079 1.009 3.222 3.222 0 0 1-.6.855c-.275.317-.536.559-.811.9-.252.3-.536.613-.219 1.161a16.551 16.551 0 0 0 3.025 3.76 13.709 13.709 0 0 0 4.373 2.7 1.179 1.179 0 0 0 1.315-.207 22.56 22.56 0 0 0 1.457-1.93 1.041 1.041 0 0 1 1.338-.406c.5.175 3.168 1.492 3.715 1.764s.909.406 1.042.636a4.644 4.644 0 0 1-.326 2.582z" data-name="Path 1189" style="fill:#fff"/>
    </g>
</svg>
